<svg width="17" height="11" viewBox="0 0 17 11" fill="none" xmlns="http://www.w3.org/2000/svg">
<path d="M10.4688 10.2817C10.3125 10.1567 10.25 9.96924 10.25 9.75049C10.25 9.56299 10.3125 9.37549 10.4688 9.25049L13.4375 6.25049H0.75C0.3125 6.25049 0 5.93799 0 5.50049C0 5.09424 0.3125 4.75049 0.75 4.75049H13.4375L10.4688 1.78174C10.1562 1.50049 10.1562 1.03174 10.4688 0.750488C10.75 0.437988 11.2188 0.437988 11.5312 0.750488L15.7812 5.00049C16.0625 5.28174 16.0625 5.75049 15.7812 6.03174L11.5312 10.2817C11.2188 10.5942 10.75 10.5942 10.4688 10.2817Z" fill="white"/>
</svg>
