<svg width="14" height="15" viewBox="0 0 14 15" fill="none" xmlns="http://www.w3.org/2000/svg">
<path d="M6.34375 1.40625C6.34375 1.05078 6.61719 0.75 7 0.75C7.35547 0.75 7.65625 1.05078 7.65625 1.40625V1.625H12.0312C12.168 1.625 12.2773 1.70703 12.3594 1.78906L13.7812 3.53906C13.8906 3.70312 13.8906 3.94922 13.7812 4.08594L12.3594 5.83594C12.2773 5.94531 12.168 6 12.0312 6H7.65625V6.875H12.25C12.7148 6.875 13.125 7.28516 13.125 7.75V10.375C13.125 10.8672 12.7148 11.25 12.25 11.25H7.65625V14.0938C7.65625 14.4766 7.35547 14.75 7 14.75C6.61719 14.75 6.34375 14.4766 6.34375 14.0938V11.25H1.94141C1.80469 11.25 1.69531 11.1953 1.61328 11.0859L0.191406 9.33594C0.0820312 9.19922 0.0820312 8.95312 0.191406 8.78906L1.61328 7.03906C1.69531 6.95703 1.80469 6.875 1.94141 6.875H6.34375V6H1.75C1.25781 6 0.875 5.61719 0.875 5.125V2.5C0.875 2.03516 1.25781 1.625 1.75 1.625H6.34375V1.40625ZM2.1875 2.9375V4.6875H11.5938L12.3047 3.8125L11.5938 2.9375H2.1875ZM11.8125 8.1875H2.37891L1.66797 9.0625L2.37891 9.9375H11.8125V8.1875Z" fill="#BA8F1C"/>
</svg>
