<svg width="12" height="16" viewBox="0 0 12 16" fill="none" xmlns="http://www.w3.org/2000/svg">
<path d="M-6.11959e-07 2L-8.74228e-08 14C-3.82475e-08 15.125 0.90625 16 2 16L10 16C11.125 16 12 15.125 12 14L12 2C12 0.906249 11.125 -7.92269e-07 10 -7.43094e-07L2 -3.93402e-07C0.906249 -3.45593e-07 -6.59769e-07 0.90625 -6.11959e-07 2ZM1.5 14L1.5 2C1.5 1.75 1.75 1.5 2 1.5L2.71875 1.5L7.03125 6.71875C7.625 7.4375 7.625 8.59375 7.03125 9.3125L2.71875 14.5L2 14.5C1.75 14.5 1.5 14.2812 1.5 14ZM10.5 2L10.5 14C10.5 14.2812 10.2812 14.5 10 14.5L4.65625 14.5L8.21875 10.25C8.71875 9.625 9 8.84375 9 8C9 7.1875 8.71875 6.40625 8.21875 5.78125L4.65625 1.5L10 1.5C10.2812 1.5 10.5 1.75 10.5 2Z" fill="white"/>
</svg>
