<svg width="15" height="15" viewBox="0 0 15 15" fill="none" xmlns="http://www.w3.org/2000/svg">
<path d="M13.125 9.52734L10.4453 8.37891C9.84375 8.10547 9.16016 8.29688 8.75 8.78906L8.01172 9.69141C6.78125 8.98047 5.76953 7.96875 5.05859 6.76562L5.98828 6.02734C6.45312 5.61719 6.64453 4.93359 6.39844 4.35938L5.22266 1.625C4.94922 0.996094 4.26562 0.640625 3.58203 0.804688L1.09375 1.37891C0.4375 1.51562 0 2.08984 0 2.77344C0 9.39062 5.35938 14.75 11.9766 14.75C12.6602 14.75 13.2344 14.3125 13.3438 13.6562L13.918 11.168C14.1094 10.4844 13.7539 9.80078 13.125 9.52734ZM12.6602 10.8672L12.0859 13.3555C12.0859 13.3828 12.0312 13.4375 11.9766 13.4375C6.09766 13.4375 1.28516 8.65234 1.28516 2.77344C1.28516 2.71875 1.33984 2.66406 1.39453 2.66406L3.88281 2.08984L3.91016 2.0625C3.96484 2.0625 3.99219 2.11719 4.01953 2.14453L5.16797 4.82422C5.19531 4.87891 5.19531 4.93359 5.14062 4.96094L3.80078 6.05469C3.58203 6.24609 3.5 6.57422 3.63672 6.84766C4.53906 8.67969 6.04297 10.1836 7.875 11.0859C8.14844 11.2227 8.50391 11.168 8.69531 10.9219L9.78906 9.58203C9.81641 9.55469 9.87109 9.52734 9.92578 9.55469L12.6055 10.7031C12.6602 10.7578 12.6875 10.8125 12.6602 10.8672Z" fill="#BA8F1C"/>
</svg>
