<svg width="16" height="14" viewBox="0 0 16 14" fill="none" xmlns="http://www.w3.org/2000/svg">
<path d="M1.625 1.25C0.96875 0.71875 0 1.15625 0 2.03125V12C0 12.875 0.96875 13.3125 1.625 12.7812L7.625 7.8125C8.09375 7.40625 8.09375 6.6875 7.625 6.28125L1.625 1.25ZM11 1C10.4375 1 9.96875 1.46875 9.96875 2V12C9.96875 12.5625 10.4375 13 10.9688 13C11.5312 13 12 12.5625 12 12V2C12 1.46875 11.5312 1 11 1ZM15 1C14.4375 1 13.9688 1.46875 13.9688 2V12C13.9688 12.5625 14.4375 13 14.9688 13C15.5312 13 16 12.5625 16 12V2C16 1.46875 15.5312 1 15 1Z" fill="white"/>
</svg>
