<svg width="36" height="32" viewBox="0 0 36 32" fill="none" xmlns="http://www.w3.org/2000/svg">
<path d="M22 20.0002H20C18.875 20.0002 18 20.9377 18 22.0002V24.0002C18 25.1252 18.875 26.0002 20 26.0002H22C23.0625 26.0002 24 25.1252 24 24.0002V22.0002C24 20.9377 23.0625 20.0002 22 20.0002ZM22 24.0002H20V22.0002H22V24.0002ZM22 12.0002H20C18.875 12.0002 18 12.9377 18 14.0002V16.0002C18 17.1252 18.875 18.0002 20 18.0002H22C23.0625 18.0002 24 17.1252 24 16.0002V14.0002C24 12.9377 23.0625 12.0002 22 12.0002ZM22 16.0002H20V14.0002H22V16.0002ZM30 20.0002H28C26.875 20.0002 26 20.9377 26 22.0002V24.0002C26 25.1252 26.875 26.0002 28 26.0002H30C31.0625 26.0002 32 25.1252 32 24.0002V22.0002C32 20.9377 31.0625 20.0002 30 20.0002ZM30 24.0002H28V22.0002H30V24.0002ZM30 12.0002H28C26.875 12.0002 26 12.9377 26 14.0002V16.0002C26 17.1252 26.875 18.0002 28 18.0002H30C31.0625 18.0002 32 17.1252 32 16.0002V14.0002C32 12.9377 31.0625 12.0002 30 12.0002ZM30 16.0002H28V14.0002H30V16.0002ZM32 2.00024H14.8125C14.375 0.875244 13.25 0.000244141 12 0.000244141H8C6.6875 0.000244141 5.5625 0.875244 5.1875 2.00024H4C1.75 2.00024 0 3.81274 0 6.00024V28.0002C0 30.2502 1.75 32.0002 4 32.0002H32C34.1875 32.0002 36 30.2502 36 28.0002V6.00024C36 3.81274 34.1875 2.00024 32 2.00024ZM20 4.00024H30V8.00024H20V4.00024ZM7 3.00024C7 2.50024 7.4375 2.00024 8 2.00024H12C12.5 2.00024 13 2.50024 13 3.00024V24.0002C13 24.5627 12.5 25.0002 12 25.0002H8C7.4375 25.0002 7 24.5627 7 24.0002V3.00024ZM34 28.0002C34 29.1252 33.0625 30.0002 32 30.0002H4C2.875 30.0002 2 29.1252 2 28.0002V6.00024C2 4.93774 2.875 4.00024 4 4.00024H5V24.0002C5 25.6877 6.3125 27.0002 8 27.0002H12C13.625 27.0002 15 25.6877 15 24.0002V4.00024H18V8.00024C18 9.12524 18.875 10.0002 20 10.0002H30C31.0625 10.0002 32 9.12524 32 8.00024V4.00024C33.0625 4.00024 34 4.93774 34 6.00024V28.0002Z" fill="#BA8F1C"/>
</svg>
